<svg xmlns="http://www.w3.org/2000/svg" xmlns:svg="http://www.w3.org/2000/svg" id="svg1901" width="96" height="96" version="1.1"><metadata id="metadata1906"/><g id="layer1" transform="translate(0,-956.3622)"><path style="opacity:1;fill:#fff;fill-opacity:.25098039;stroke-width:1.45454538;stroke-linecap:round;stroke-linejoin:round" id="path11" d="m 48,980.3622 c -13.254834,0 -24,10.74517 -24,24 0,13.2548 10.745166,24 24,24 13.254834,0 24,-10.7452 24,-24 0,-13.25483 -10.745166,-24 -24,-24 z m 0,12 a 12,12 0 0 1 12,12 12,12 0 0 1 -12,12 12,12 0 0 1 -12,-12 12,12 0 0 1 12,-12 z"/><circle style="fill:#fff;fill-opacity:.89803922;stroke-width:1.41421366;stroke-linecap:round;stroke-linejoin:round" id="path13-3-3" cx="48" cy="1004.362" r="12"/></g></svg>