<svg xmlns="http://www.w3.org/2000/svg" xmlns:svg="http://www.w3.org/2000/svg" id="svg1901" width="112" height="112" version="1.1"><metadata id="metadata1906"/><g id="layer1" transform="translate(0,-940.3622)"><g id="g10147" transform="matrix(1.3333333,0,0,1.3333333,24.000001,-374.78735)" style="fill:#fff;fill-opacity:.9"><ellipse id="path10142" cx="-4" cy="15.5" rx="6" ry="5.5" transform="matrix(1.1666667,0,0,1.2727273,28.666667,1008.6349)" style="fill:#fff;fill-opacity:.9;stroke:none"/><ellipse id="path10142-7" cx="-4" cy="15.5" rx="6" ry="5.5" transform="matrix(1.1666667,0,0,1.2727273,11.666667,1008.6349)" style="fill:#fff;fill-opacity:.9;stroke:none"/><ellipse id="path10142-77" cx="-4" cy="15.5" rx="6" ry="5.5" transform="matrix(1.1666667,0,0,1.2727273,45.666667,1008.6349)" style="fill:#fff;fill-opacity:.9;stroke:none"/><ellipse id="path10142-3" cx="-4" cy="15.5" rx="6" ry="5.5" transform="matrix(1.1666667,0,0,1.2727273,28.666667,991.63493)" style="fill:#fff;fill-opacity:.9;stroke:none"/><ellipse id="path10142-31" cx="-4" cy="15.5" rx="6" ry="5.5" transform="matrix(1.1666667,0,0,1.2727273,11.666667,991.63493)" style="fill:#fff;fill-opacity:.9;stroke:none"/><ellipse id="path10142-6" cx="-4" cy="15.5" rx="6" ry="5.5" transform="matrix(1.1666667,0,0,1.2727273,45.666667,991.63493)" style="fill:#fff;fill-opacity:.9;stroke:none"/><ellipse id="path10142-9" cx="-4" cy="15.5" rx="6" ry="5.5" transform="matrix(1.1666667,0,0,1.2727273,11.666667,1025.6349)" style="fill:#fff;fill-opacity:.9;stroke:none"/><ellipse id="path10142-1" cx="-4" cy="15.5" rx="6" ry="5.5" transform="matrix(1.1666667,0,0,1.2727273,28.666667,1025.6349)" style="fill:#fff;fill-opacity:.9;stroke:none"/><ellipse id="path10142-69" cx="-4" cy="15.5" rx="6" ry="5.5" transform="matrix(1.1666667,0,0,1.2727273,45.666667,1025.6349)" style="fill:#fff;fill-opacity:.9;stroke:none"/></g></g></svg>