<svg xmlns="http://www.w3.org/2000/svg" xmlns:svg="http://www.w3.org/2000/svg" id="svg1901" width="72" height="72" version="1.1"><metadata id="metadata1906"/><g id="layer1" transform="translate(0,-980.3622)"><g id="g10914" transform="translate(12,-12)" style="fill:#fff;fill-opacity:.5"><path id="path10143" d="m 24,1004.3622 c -13.254834,0 -24,10.7452 -24,24 0,13.2548 10.745166,24 24,24 13.254834,0 24,-10.7452 24,-24 0,-13.2548 -10.745166,-24 -24,-24 z m 0,7.5 c 9.112698,0 16.5,7.3873 16.5,16.5 0,9.1127 -7.387302,16.5 -16.5,16.5 -9.112699,0 -16.5,-7.3873 -16.5,-16.5 0,-9.1127 7.387301,-16.5 16.5,-16.5 z" style="fill:#fff;fill-opacity:.5;stroke:#fff;stroke-width:0;stroke-linecap:square;stroke-miterlimit:4;stroke-dasharray:none;stroke-opacity:0"/><ellipse id="path10139" cx="15" cy="14.5" rx="4" ry="3.5" transform="matrix(2.25,0,0,2.5714286,-9.75,991.07655)" style="fill:#fff;fill-opacity:.5;stroke:#fff;stroke-width:0;stroke-linecap:square;stroke-miterlimit:4;stroke-dasharray:none;stroke-opacity:0"/></g></g></svg>