<svg xmlns="http://www.w3.org/2000/svg" xmlns:svg="http://www.w3.org/2000/svg" id="svg2" width="400" height="400" version="1.1" viewBox="0 0 400 400" xml:space="preserve"><metadata id="metadata8"/><defs id="defs6"><clipPath id="clipPath16" clipPathUnits="userSpaceOnUse"><path id="path18" d="m 0,283.46 283.46,0 L 283.46,0 0,0 0,283.46 Z"/></clipPath></defs><g id="g10" transform="matrix(1.25,0,0,-1.25,0,399.99999)"><path style="fill:#ed145d;fill-opacity:1;fill-rule:nonzero;stroke:none" id="path22" d="M 0,40.003238 C 0,18.003485 17.997975,-8e-6 40.00127,-8e-6 l 239.99181,0 C 301.99864,-8e-6 320,18.003485 320,40.003238 l 0,239.998022 c 0,22.00088 -18.00136,39.99873 -40.00692,39.99873 l -239.99181,0 C 17.997975,319.99999 0,302.00214 0,280.00126 L 0,40.003238 Z"/><path style="fill:#fff;fill-opacity:1;fill-rule:nonzero;stroke:none" id="path26" d="m 256.7455,104.48699 0,24.568 -81.001,57.658 0,68.436 c 0,8.697 -7.051,15.745 -15.744,15.745 -8.696,0 -15.744,-7.048 -15.744,-15.745 l 0,-67.393 -81.002,-58.701 0,-24.568 82.439,32.264 3.971,-55.737998 -22.603,-17.061 0,-14.846 33.056,10.275 33.052,-10.275 0,14.846 -22.829,17.085 3.967,55.716998 82.438,-32.267 z"/></g></svg>