<svg xmlns="http://www.w3.org/2000/svg" xmlns:svg="http://www.w3.org/2000/svg" xmlns:xlink="http://www.w3.org/1999/xlink" id="svg2" width="86" height="86" x="0" y="0" enable-background="new 0 0 86 86" version="1.1" viewBox="0 0 86 86" xml:space="preserve"><metadata id="metadata49"/><defs id="defs47"><radialGradient id="SVGID_1_" cx="40.409" cy="43.466" r="42.611" gradientTransform="matrix(1.0021,0,0,1.0021,2.506,-0.5573)" gradientUnits="userSpaceOnUse"><stop style="stop-color:#eee;stop-opacity:1" id="stop9" offset="0"/><stop style="stop-color:#dadada" id="stop11" offset="1"/></radialGradient><radialGradient id="radialGradient946" cx="43" cy="43" r="42.7" fx="43" fy="43" gradientUnits="userSpaceOnUse" xlink:href="#SVGID_1_"/></defs><path style="fill:url(#radialGradient946);fill-opacity:1;stroke:none" id="path25" fill="url(#SVGID_1_)" d="m 85.699,1.723 c 0,-0.786 -0.637,-1.423 -1.423,-1.423 0,0 -40.641,0 -41.276,0 C 19.417,0.3 0.3,19.417 0.3,43 0.3,66.582 19.417,85.7 43,85.7 66.583,85.7 85.7,66.582 85.7,43 85.7,42.364 85.699,1.723 85.699,1.723 Z"/><g id="g10914" transform="matrix(0.89463737,0.89463737,-0.89463737,0.89463737,941.53994,-898.48254)" style="fill:#0540ff;fill-opacity:.62745098"><path id="path10143-5" d="M 24.000003,993.71127 C 9.4689762,1008.2423 0,1015.1074 0,1028.3622 c 0,13.2548 10.745166,24 24,24 13.254834,0 24,-10.7452 24,-24 0,-13.2548 -9.468969,-20.1199 -23.999997,-34.65093 z M 24,1011.8622 c 9.112698,0 16.5,7.3873 16.5,16.5 0,9.1127 -7.387302,16.5 -16.5,16.5 -9.112699,0 -16.5,-7.3873 -16.5,-16.5 0,-9.1127 7.387301,-16.5 16.5,-16.5 z" style="fill:#0540ff;fill-opacity:.62745098;stroke:#fff;stroke-width:0;stroke-linecap:square;stroke-miterlimit:4;stroke-dasharray:none;stroke-opacity:0"/><ellipse id="path10139-3" cx="15" cy="14.5" rx="4" ry="3.5" transform="matrix(2.25,0,0,2.5714286,-9.75,991.07655)" style="fill:#0540ff;fill-opacity:.62745098;stroke:#fff;stroke-width:0;stroke-linecap:square;stroke-miterlimit:4;stroke-dasharray:none;stroke-opacity:0"/></g></svg>