<svg xmlns="http://www.w3.org/2000/svg" xmlns:svg="http://www.w3.org/2000/svg" id="new" width="190" height="80" x="0" y="0" version="1.1" viewBox="0 0 190 80" xml:space="preserve"><metadata id="metadata31"/><title id="title2">Mapbox_Logo_08</title><g id="g24" transform="matrix(0.1799775,0,0,0.1799775,23.100113,23.802025)" style="fill:#000;fill-opacity:.3764706;stroke:none"><g id="g16" style="fill:#000;fill-opacity:.3764706;stroke:none"><path id="path4" d="m 594.6,49.8 c -9.9,0 -19.4,4.1 -26.3,11.3 V 23 c 0,-1.2 -1,-2.2 -2.2,-2.2 v 0 h -13.4 c -1.2,0 -2.2,1 -2.2,2.2 v 103 c 0,1.2 1,2.2 2.2,2.2 h 13.4 c 1.2,0 2.2,-1 2.2,-2.2 v 0 -7.1 c 6.9,7.2 16.3,11.3 26.3,11.3 20.9,0 37.8,-18 37.8,-40.2 0,-22.2 -16.9,-40.2 -37.8,-40.2 z m -3.1,64.3 c -12.7,0 -23,-10.6 -23.1,-23.8 v -0.6 c 0.2,-13.2 10.4,-23.8 23.1,-23.8 12.8,0 23.1,10.8 23.1,24.1 0,13.3 -10.4,24.1 -23.1,24.1 z" style="fill:#000;fill-opacity:.3764706;stroke:none"/><path id="path6" d="m 681.7,49.8 c -22.6,0 -40.9,18 -40.9,40.2 0,22.2 18.3,40.2 40.9,40.2 22.6,0 40.9,-18 40.9,-40.2 0,-22.2 -18.3,-40.2 -40.9,-40.2 z m -0.1,64.3 c -12.8,0 -23.1,-10.8 -23.1,-24.1 0,-13.3 10.4,-24.1 23.1,-24.1 12.7,0 23.1,10.8 23.1,24.1 0,13.3 -10.4,24.1 -23.1,24.1 z" style="fill:#000;fill-opacity:.3764706;stroke:none"/><path id="path8" d="m 431.6,51.8 h -13.4 c -1.2,0 -2.2,1 -2.2,2.2 0,0 0,0 0,0 v 7.1 c -6.9,-7.2 -16.3,-11.3 -26.3,-11.3 -20.9,0 -37.8,18 -37.8,40.2 0,22.2 16.9,40.2 37.8,40.2 9.9,0 19.4,-4.1 26.3,-11.3 v 7.1 c 0,1.2 1,2.2 2.2,2.2 v 0 h 13.4 c 1.2,0 2.2,-1 2.2,-2.2 v 0 -72 c 0,-1.2 -1,-2.2 -2.2,-2.2 z m -38.8,62.3 c -12.8,0 -23.1,-10.8 -23.1,-24.1 0,-13.3 10.4,-24.1 23.1,-24.1 12.7,0 23,10.6 23.1,23.8 v 0.6 c -0.1,13.2 -10.4,23.8 -23.1,23.8 z" style="fill:#000;fill-opacity:.3764706;stroke:none"/><path id="path10" d="m 498.5,49.8 c -9.9,0 -19.4,4.1 -26.3,11.3 V 54 c 0,-1.2 -1,-2.2 -2.2,-2.2 v 0 h -13.4 c -1.2,0 -2.2,1 -2.2,2.2 0,0 0,0 0,0 v 103 c 0,1.2 1,2.2 2.2,2.2 v 0 H 470 c 1.2,0 2.2,-1 2.2,-2.2 v 0 -38.1 c 6.9,7.2 16.3,11.3 26.3,11.3 20.9,0 37.8,-18 37.8,-40.2 0,-22.2 -16.9,-40.2 -37.8,-40.2 z m -3.1,64.3 c -12.7,0 -23,-10.6 -23.1,-23.8 v -0.6 c 0.2,-13.2 10.4,-23.8 23.1,-23.8 12.8,0 23.1,10.8 23.1,24.1 0,13.3 -10.3,24.1 -23.1,24.1 z" style="fill:#000;fill-opacity:.3764706;stroke:none"/><path id="path12" d="m 311.8,49.8 c -10,0.1 -19.1,5.9 -23.4,15 -4.9,-9.3 -14.7,-15.1 -25.2,-15 -8.2,0 -15.9,4 -20.7,10.6 V 54 c 0,-1.2 -1,-2.2 -2.2,-2.2 v 0 h -13.4 c -1.2,0 -2.2,1 -2.2,2.2 0,0 0,0 0,0 v 72 c 0,1.2 1,2.2 2.2,2.2 v 0 h 13.4 c 1.2,0 2.2,-1 2.2,-2.2 v 0 -43.1 c 0.5,-9.6 7.2,-17.3 15.4,-17.3 8.5,0 15.6,7.1 15.6,16.4 v 44 c 0,1.2 1,2.2 2.2,2.2 h 13.5 c 1.2,0 2.2,-1 2.2,-2.2 0,0 0,0 0,0 l -0.1,-44.8 c 1.2,-8.8 7.5,-15.6 15.2,-15.6 8.5,0 15.6,7.1 15.6,16.4 v 44 c 0,1.2 1,2.2 2.2,2.2 h 13.5 c 1.2,0 2.2,-1 2.2,-2.2 0,0 0,0 0,0 l -0.1,-49.5 c 0,-14.8 -12.6,-26.7 -28.1,-26.7 z" style="fill:#000;fill-opacity:.3764706;stroke:none"/><path id="path14" d="m 794.7,125.1 -23.2,-35.3 23,-35 c 0.6,-0.9 0.3,-2.2 -0.6,-2.8 -0.3,-0.2 -0.7,-0.3 -1.1,-0.3 h -15.5 c -1.2,0 -2.3,0.6 -2.9,1.6 L 760.9,76 747.4,53.4 c -0.6,-1 -1.7,-1.6 -2.9,-1.6 H 729 c -1.1,0 -2,0.9 -2,2 0,0.4 0.1,0.8 0.3,1.1 l 23,35 -23.2,35.3 c -0.6,0.9 -0.3,2.2 0.6,2.8 0.3,0.2 0.7,0.3 1.1,0.3 h 15.5 c 1.2,0 2.3,-0.6 2.9,-1.6 l 13.8,-23 13.8,23 c 0.6,1 1.7,1.6 2.9,1.6 H 793 c 1.1,0 2,-0.9 2,-2 0,-0.4 -0.1,-0.8 -0.3,-1.2 z" style="fill:#000;fill-opacity:.3764706;stroke:none"/></g><g id="g22" style="fill:#000;fill-opacity:.3764706;stroke:none"><path id="path18" d="M 93.9,1.1 C 44.8,1.1 5,40.9 5,90 c 0,49.1 39.8,88.9 88.9,88.9 49.1,0 88.9,-39.8 88.9,-88.9 C 182.8,40.9 143,1.1 93.9,1.1 Z m 42.2,110.7 c -30.4,30.4 -84.7,20.7 -84.7,20.7 0,0 -9.8,-54.2 20.7,-84.7 16.9,-16.9 44.9,-16.2 62.6,1.4 17.7,17.6 18.3,45.7 1.4,62.6 z" style="fill:#000;fill-opacity:.3764706;stroke:none"/><polygon id="polygon20" points="112.8 71.1 104.1 53.2 95.4 71.1 77.5 79.8 95.4 88.5 104.1 106.4 112.8 88.5 130.7 79.8" style="fill:#000;fill-opacity:.3764706;stroke:none"/></g></g></svg>